<svg fill="none" viewBox="0 0 24 24" xmlns="http://www.w3.org/2000/svg" xmlns:xlink="http://www.w3.org/1999/xlink"><clipPath id="a"><path d="m0 0h24v24h-24z"/></clipPath><g clip-path="url(#a)"><path clip-rule="evenodd" d="m13 11c1.9509 0 3.2542-.6723 4.1047-1.80625.7554-1.00721 1.0786-2.30196 1.3429-3.36083l.0225-.09038c.2938-1.17514.5366-2.08485 1.0252-2.73629.4152-.55354 1.0806-1.00625 2.5047-1.00625.5523 0 1-.44772 1-1 0-.552285-.4477-1-1-1-1.9509 0-3.2542.672288-4.1047 1.80625-.7554 1.00721-1.0786 2.30196-1.3429 3.36083l-.0225.09038c-.2938 1.17514-.5366 2.08485-1.0252 2.73629-.4152.55354-1.0806 1.00625-2.5047 1.00625-.5523 0-1 .44771-1 1 0 .5523.4477 1 1 1zm-3.39832-10.798756c-.44171-.331525-1.06854-.2421998-1.40007.199513-.33152.441712-.2422 1.068543.19951 1.400073.42012.31532.77402.7103 1.0415 1.16238.26747.45209.44328.95244.51738 1.47247.0741.52004.0451 1.04958-.08548 1.55838-.13055.50881-.36003.98692-.67535 1.40704-.33152.44172-.2422 1.06855.19951 1.40008.44172.33152 1.06852.2422 1.40012-.19952.4729-.63018.8172-1.34735 1.013-2.11056s.2394-1.55752.1282-2.33757-.3749-1.53057-.7761-2.2087c-.4012-.67814-.932-1.270608-1.56222-1.743586zm-2.60168 4.798756c0 .55228-.44772 1-1 1s-1-.44772-1-1 .44772-1 1-1 1 .44772 1 1zm15 4c.5523 0 1-.44772 1-1s-.4477-1-1-1-1 .44772-1 1 .4477 1 1 1zm-2 9c0 .5523-.4477 1-1 1s-1-.4477-1-1 .4477-1 1-1 1 .4477 1 1zm-.4337-3.9597c-.5199-.0744-1.0495-.0456-1.5584.0847-.5088.1303-.9871.3595-1.4074.6746-.4418.3313-1.0686.2417-1.3999-.2002s-.2417-1.0687.2002-1.4c.6304-.4726 1.3478-.8165 2.1111-1.0119.7633-.1955 1.5576-.2386 2.3376-.1271.78.1116 1.5304.3757 2.2083.7773.678.4015 1.2701.9327 1.7428 1.5631.3313.4419.2417 1.0687-.2002 1.4s-1.0687.2416-1.4-.2003c-.3151-.4203-.7099-.7744-1.1618-1.0421-.452-.2677-.9523-.4437-1.4723-.5181zm-12.85916-4.74739c-.23937-.23936-.58357-.34138-.9147-.27111-.33114.07027-.60424.30329-.72576.61924l-1.39209 3.61946 7.06501 7.065 3.6194-1.3921c.316-.1216.549-.3947.6192-.7258.0703-.3311-.0317-.6753-.2711-.9147zm1.98966 11.81819-5.80789-5.8079-2.8222267 7.3378c-.1418645.3689-.0532018.7867.2262387 1.0661.279441.2795.697238.3681 1.066088.2263z" fill="#758ca3" fill-rule="evenodd"/></g></svg>